# xmcd
#
# Track frame offsets:
#	150
#	11839
#	26846
#	41345
#	58403
#	74105
#	86458
#	100197
#	116452
#	130920
#
# Disc length: 1916 seconds
#
# Revision: 0
# Processed by: cddbd v1.5.2PL0 Copyright (c) Steve Scherf et al.
# Submitted via: dBpowerAMP V4.0
#
DISCID=8b077a0a
DTITLE=Los Cadetes De Linares - Los 40 Corridos Mas Famosos CD1
DYEAR=1900
DGENRE=Latin
TTITLE0=Juan de la Fuente
TTITLE1=La Venganza de Maria
TTITLE2=El Bayo Cara Blanca
TTITLE3=Cuatro de a Caballo
TTITLE4=El Pata de Palo
TTITLE5=Arturo Fabila
TTITLE6=Entre Hierba Polvo y Plomo
TTITLE7=Laurita Garza
TTITLE8=Las Tres Tumbas
TTITLE9=La Venganza del Viejito
EXTD=
EXTT0=
EXTT1=
EXTT2=
EXTT3=
EXTT4=
EXTT5=
EXTT6=
EXTT7=
EXTT8=
EXTT9=
PLAYORDER=
